<svg xmlns="http://www.w3.org/2000/svg" width="140.026" height="75.663" viewBox="0 0 140.026 75.663">
  <g id="Group_6" data-name="Group 6" transform="translate(-1078 747)">
    <g id="logo_alta-02" data-name="logo alta-02" transform="translate(1078 -747)">
      <g id="Group_3" data-name="Group 3" transform="translate(0 25.704)">
        <path id="Path_15" data-name="Path 15" d="M90.128,461.8a5.64,5.64,0,0,1,2.2,2.557v-3.271h5.5v18.068h-5.5v-3.271a5.641,5.641,0,0,1-2.2,2.557,6.534,6.534,0,0,1-3.562.938,7.33,7.33,0,0,1-4-1.116,7.644,7.644,0,0,1-2.785-3.221,12.425,12.425,0,0,1,0-9.86,7.66,7.66,0,0,1,2.785-3.206,7.326,7.326,0,0,1,4-1.116A6.55,6.55,0,0,1,90.128,461.8Zm-4.647,5.083a5.375,5.375,0,0,0,0,6.476,4.063,4.063,0,0,0,5.73-.032,5.186,5.186,0,0,0,0-6.429,3.773,3.773,0,0,0-2.865-1.181A3.732,3.732,0,0,0,85.481,466.885Z" transform="translate(-78.76 -455.194)" fill="#fff"/>
        <path id="Path_16" data-name="Path 16" d="M222.867,426.81v23.962H217.33V426.81Z" transform="translate(-194.273 -426.81)" fill="#fff"/>
        <path id="Path_17" data-name="Path 17" d="M277.806,453.307v4.76h-2.494a7.168,7.168,0,0,1-4.939-1.571q-1.765-1.57-1.765-5.2V444.66H266.18V440h2.428V435.56h5.537V440h3.627v4.664h-3.627V451.4a2.028,2.028,0,0,0,.438,1.489,2.085,2.085,0,0,0,1.473.421h1.75Z" transform="translate(-234.995 -434.104)" fill="#fff"/>
        <path id="Path_18" data-name="Path 18" d="M367.99,471.135H355.458a4.183,4.183,0,0,0,1.037,2.93,3.338,3.338,0,0,0,2.4.89,3.269,3.269,0,0,0,2.04-.616A2.872,2.872,0,0,0,362,472.752h5.862a7.657,7.657,0,0,1-1.554,3.416,8.3,8.3,0,0,1-3.043,2.364,10.4,10.4,0,0,1-8.825-.258,7.974,7.974,0,0,1-3.221-3.221,11.073,11.073,0,0,1-.017-9.86,7.878,7.878,0,0,1,3.221-3.206,10.637,10.637,0,0,1,9.454-.017,7.773,7.773,0,0,1,3.156,3.093,9.2,9.2,0,0,1,1.118,4.582A7.36,7.36,0,0,1,367.99,471.135Zm-6.394-5a3.513,3.513,0,0,0-2.444-.89,3.62,3.62,0,0,0-2.526.907,3.8,3.8,0,0,0-1.133,2.656h7.058A3.342,3.342,0,0,0,361.6,466.131Z" transform="translate(-304.91 -455.203)" fill="#fff"/>
        <path id="Path_19" data-name="Path 19" d="M485.34,462.032a6.821,6.821,0,0,1,3.546-.972v5.925H487.3a5.47,5.47,0,0,0-3.416.938,3.776,3.776,0,0,0-1.215,3.173v8.225H477.13V461.255h5.537v3.4A7.88,7.88,0,0,1,485.34,462.032Z" transform="translate(-410.845 -455.361)" fill="#fff"/>
        <path id="Path_20" data-name="Path 20" d="M570.97,462.032a6.821,6.821,0,0,1,3.546-.972v5.925h-1.587a5.47,5.47,0,0,0-3.416.938A3.776,3.776,0,0,0,568.3,471.1v8.225H562.76V461.255H568.3v3.4A7.88,7.88,0,0,1,570.97,462.032Z" transform="translate(-482.227 -455.361)" fill="#fff"/>
        <path id="Path_21" data-name="Path 21" d="M654.125,461.8a5.64,5.64,0,0,1,2.2,2.557v-3.271h5.5v18.068h-5.5v-3.271a5.642,5.642,0,0,1-2.2,2.557,6.534,6.534,0,0,1-3.562.938,7.32,7.32,0,0,1-4-1.116,7.644,7.644,0,0,1-2.785-3.221,12.425,12.425,0,0,1,0-9.86,7.66,7.66,0,0,1,2.785-3.206,7.324,7.324,0,0,1,4-1.116A6.548,6.548,0,0,1,654.125,461.8Zm-4.647,5.083a5.375,5.375,0,0,0,0,6.476,4.063,4.063,0,0,0,5.731-.032,5.186,5.186,0,0,0,0-6.429,3.773,3.773,0,0,0-2.865-1.181A3.732,3.732,0,0,0,649.477,466.885Z" transform="translate(-548.916 -455.194)" fill="#fff"/>
      </g>
      <circle id="Ellipse_2" data-name="Ellipse 2" cx="15.132" cy="15.132" r="15.132" transform="translate(109.763 0)" fill="#fff"/>
      <g id="Group_4" data-name="Group 4" transform="translate(1.013 56.486)">
        <path id="Path_22" data-name="Path 22" d="M92.725,634.7a4.432,4.432,0,0,1,1.6,2.358v-3.118h.867v10.454h-.867v-3.118a4.435,4.435,0,0,1-1.6,2.358,4.623,4.623,0,0,1-2.889.9,5.106,5.106,0,0,1-2.589-.646,4.468,4.468,0,0,1-1.762-1.867,6.727,6.727,0,0,1,0-5.709,4.471,4.471,0,0,1,1.762-1.857,5.124,5.124,0,0,1,2.589-.646A4.626,4.626,0,0,1,92.725,634.7ZM86.9,635.8a4.677,4.677,0,0,0-1.165,3.349,4.73,4.73,0,0,0,1.155,3.369,4.091,4.091,0,0,0,3.138,1.231,4.353,4.353,0,0,0,2.215-.567,3.926,3.926,0,0,0,1.531-1.617,5.131,5.131,0,0,0,.549-2.416,5.072,5.072,0,0,0-.549-2.406,3.93,3.93,0,0,0-1.531-1.607,4.349,4.349,0,0,0-2.215-.567A4.106,4.106,0,0,0,86.9,635.8Z" transform="translate(-84.85 -630.141)" fill="#fff"/>
        <path id="Path_23" data-name="Path 23" d="M171.544,634.83a4.288,4.288,0,0,1,1.579,2.724h-.905a3.323,3.323,0,0,0-1.31-2.195,4.3,4.3,0,0,0-2.657-.809,4.361,4.361,0,0,0-2.08.5,3.74,3.74,0,0,0-1.521,1.541,5.967,5.967,0,0,0,0,5.122,3.749,3.749,0,0,0,1.521,1.541,4.361,4.361,0,0,0,2.08.5,4.308,4.308,0,0,0,2.657-.809,3.323,3.323,0,0,0,1.31-2.195h.905a4.3,4.3,0,0,1-1.579,2.744,5.08,5.08,0,0,1-3.273,1.03,5.251,5.251,0,0,1-2.627-.646,4.552,4.552,0,0,1-1.8-1.859,6.579,6.579,0,0,1,0-5.719,4.558,4.558,0,0,1,1.8-1.857,5.269,5.269,0,0,1,2.627-.646A5.08,5.08,0,0,1,171.544,634.83Z" transform="translate(-150.155 -630.141)" fill="#fff"/>
        <path id="Path_24" data-name="Path 24" d="M244.065,634.7a4.433,4.433,0,0,1,1.6,2.358v-3.118h.867v10.454h-.867v-3.118a4.435,4.435,0,0,1-1.6,2.358,4.623,4.623,0,0,1-2.889.9,5.106,5.106,0,0,1-2.589-.646,4.468,4.468,0,0,1-1.762-1.867,6.727,6.727,0,0,1,0-5.709,4.471,4.471,0,0,1,1.762-1.857,5.124,5.124,0,0,1,2.589-.646A4.626,4.626,0,0,1,244.065,634.7Zm-5.824,1.107a4.677,4.677,0,0,0-1.165,3.349,4.73,4.73,0,0,0,1.155,3.369,4.091,4.091,0,0,0,3.138,1.231,4.353,4.353,0,0,0,2.215-.567,3.905,3.905,0,0,0,1.531-1.617,5.131,5.131,0,0,0,.549-2.416,5.072,5.072,0,0,0-.549-2.406,3.93,3.93,0,0,0-1.531-1.607,4.349,4.349,0,0,0-2.215-.567A4.1,4.1,0,0,0,238.242,635.8Z" transform="translate(-211.008 -630.141)" fill="#fff"/>
        <path id="Path_25" data-name="Path 25" d="M322.4,616.364a4.432,4.432,0,0,1,1.6,2.358V611.81h.867v14.246h-.867v-3.118a4.435,4.435,0,0,1-1.6,2.358,4.623,4.623,0,0,1-2.889.9,5.106,5.106,0,0,1-2.589-.646,4.468,4.468,0,0,1-1.762-1.867,6.727,6.727,0,0,1,0-5.709,4.471,4.471,0,0,1,1.762-1.857,5.124,5.124,0,0,1,2.589-.646A4.634,4.634,0,0,1,322.4,616.364Zm-5.824,1.107a4.677,4.677,0,0,0-1.165,3.349,4.73,4.73,0,0,0,1.155,3.369,4.09,4.09,0,0,0,3.138,1.231,4.353,4.353,0,0,0,2.215-.567,3.905,3.905,0,0,0,1.531-1.617,5.131,5.131,0,0,0,.549-2.416,5.072,5.072,0,0,0-.549-2.406,3.93,3.93,0,0,0-1.531-1.607,4.348,4.348,0,0,0-2.215-.567A4.1,4.1,0,0,0,316.572,617.471Z" transform="translate(-276.305 -611.81)" fill="#fff"/>
        <path id="Path_26" data-name="Path 26" d="M400.569,642.985a3.286,3.286,0,0,0,1.31-2.185h.905a4.251,4.251,0,0,1-1.569,2.7,5.072,5.072,0,0,1-3.263,1.02,5.251,5.251,0,0,1-2.627-.646,4.552,4.552,0,0,1-1.8-1.859,6.579,6.579,0,0,1,0-5.719,4.558,4.558,0,0,1,1.8-1.857,5.269,5.269,0,0,1,2.627-.646,5.117,5.117,0,0,1,2.627.646,4.356,4.356,0,0,1,1.676,1.694,4.65,4.65,0,0,1,.567,2.243,5.74,5.74,0,0,1-.1,1.02h-8.99a4.882,4.882,0,0,0,.606,2.454,3.7,3.7,0,0,0,1.521,1.463,4.48,4.48,0,0,0,2.05.471A4.316,4.316,0,0,0,400.569,642.985Zm-4.7-8a3.764,3.764,0,0,0-1.531,1.463,4.769,4.769,0,0,0-.606,2.426h8.24a4.42,4.42,0,0,0-.481-2.436,3.513,3.513,0,0,0-1.5-1.463,4.7,4.7,0,0,0-4.12.01Z" transform="translate(-341.618 -630.133)" fill="#fff"/>
        <path id="Path_27" data-name="Path 27" d="M484.345,634.495a4.74,4.74,0,0,1,1.107,3.408v6.1H484.6v-6.065a4.123,4.123,0,0,0-.885-2.849,3.1,3.1,0,0,0-2.426-.982,3.394,3.394,0,0,0-2.647,1.1,4.683,4.683,0,0,0-.992,3.235v5.564h-.847v-6.065a4.084,4.084,0,0,0-.9-2.849,3.136,3.136,0,0,0-2.436-.982,3.371,3.371,0,0,0-2.627,1.1,4.68,4.68,0,0,0-.992,3.235v5.564h-.867V633.551h.867v2.714a3.661,3.661,0,0,1,1.416-2.185,4.078,4.078,0,0,1,2.416-.74,3.94,3.94,0,0,1,2.454.78,3.754,3.754,0,0,1,1.358,2.32,3.809,3.809,0,0,1,1.454-2.32,4.207,4.207,0,0,1,2.512-.78A3.806,3.806,0,0,1,484.345,634.495Z" transform="translate(-405.073 -629.758)" fill="#fff"/>
        <path id="Path_28" data-name="Path 28" d="M580.1,634.61l3.927,9.3,3.639-9.3h.962l-6.065,15.383h-1l2-4.987-4.428-10.4Z" transform="translate(-496.886 -630.816)" fill="#fff"/>
      </g>
    </g>
  </g>
</svg>
