<svg xmlns="http://www.w3.org/2000/svg" width="228" height="57" viewBox="0 0 228 57" fill="none"><path d="M22.9373 1.81772C23.0639 1.60465 23.1161 1.35462 23.0856 1.10784C23.055 0.861066 22.9434 0.631874 22.7688 0.457121C22.5941 0.282368 22.3665 0.172209 22.1226 0.144357C21.8787 0.116504 21.6326 0.172577 21.424 0.303559C17.577 2.75312 14.1396 5.80796 11.241 9.35326C9.67736 11.2699 -4.35655 28.8223 2.39066 44.0132C4.08461 47.6687 6.77544 50.7567 10.1454 52.9127C13.5154 55.0687 17.4239 56.2025 21.4093 56.1804C24.8917 56.0884 28.2829 55.0328 31.2157 53.1281C34.1486 51.2233 36.5114 48.5419 38.0483 45.3742C42.7127 34.9802 36.2009 21.7561 32.3871 21.7616C28.8651 21.7667 27.7136 33.0536 24.1825 32.9054C21.2543 32.7825 18.7155 24.8814 18.5041 18.3585C18.3951 12.5294 19.9333 6.7902 22.9373 1.81772Z" fill="#25C6D1"></path><path d="M75.1162 50.8476H58.3591C57.2546 50.8476 56.3591 49.9521 56.3591 48.8476V12.4772H61.2006C62.3052 12.4772 63.2006 13.3727 63.2006 14.4772V44.3794H75.1162V50.8476Z" fill="#161616"></path><path d="M105.33 50.8476H98.4882V48.7098C98.0321 49.5868 97.1579 50.2446 95.8656 50.6831C94.6114 51.1216 93.167 51.3409 91.5327 51.3409C89.9363 51.3409 88.378 51.1399 86.8577 50.7379C85.3753 50.2994 84.1591 49.6782 83.2089 48.8742C80.8524 46.8278 79.6741 43.7947 79.6741 39.775V23.4402H86.5156V39.775C86.5156 41.6387 87.0857 42.9908 88.226 43.8313C89.4042 44.6352 90.8675 45.0372 92.6159 45.0372C93.4901 45.0372 94.3833 44.8545 95.2955 44.489C96.2077 44.1236 96.9679 43.5572 97.576 42.7898C98.1841 42.0224 98.4882 41.0174 98.4882 39.775V23.4402H105.33V50.8476Z" fill="#161616"></path><path d="M154.705 50.8476H147.863V35.0609C147.863 33.1241 147.369 31.772 146.381 31.0046C145.431 30.2007 144.138 29.7987 142.504 29.7987C140.832 29.7987 139.368 30.2007 138.114 31.0046C136.898 31.772 136.29 33.1241 136.29 35.0609V50.8476H129.676V35.0609C129.676 33.1241 129.125 31.772 128.023 31.0046C126.959 30.2372 125.685 29.8535 124.203 29.8535C123.139 29.8535 122.113 30.018 121.124 30.3468C120.174 30.6757 119.395 31.2239 118.787 31.9913C118.179 32.7222 117.875 33.7454 117.875 35.0609V50.8476H111.033V23.4402H117.875V25.5231C118.787 24.6461 119.832 24.0432 121.01 23.7143C122.227 23.3488 123.424 23.1661 124.602 23.1661C126.351 23.1661 128.004 23.4767 129.562 24.098C131.159 24.6827 132.432 25.578 133.382 26.7839C134.37 25.578 135.777 24.6827 137.601 24.098C139.425 23.4767 141.193 23.1661 142.903 23.1661C145.032 23.1661 146.989 23.6777 148.775 24.7009C150.562 25.6876 151.987 27.0762 153.051 28.8668C154.154 30.6209 154.705 32.6856 154.705 35.0609V50.8476Z" fill="#161616"></path><path d="M167.159 50.8476H160.887V23.4402H167.159V50.8476Z" fill="#161616"></path><path d="M199.492 50.8476H192.65V34.8417C192.65 33.3434 192.346 32.2288 191.738 31.498C191.168 30.7306 190.446 30.2189 189.571 29.9631C188.735 29.7073 187.918 29.5794 187.12 29.5794C186.36 29.5794 185.466 29.7073 184.44 29.9631C183.452 30.2189 182.578 30.7306 181.818 31.498C181.058 32.2288 180.677 33.3434 180.677 34.8417V50.8476H173.836V23.4402H180.677V25.4135C181.324 24.573 182.331 23.9883 183.699 23.6595C185.067 23.294 186.379 23.1113 187.633 23.1113C190.066 23.1113 192.156 23.6046 193.904 24.5913C195.691 25.578 197.059 26.9483 198.009 28.7024C198.997 30.4565 199.492 32.5029 199.492 34.8417V50.8476Z" fill="#161616"></path><path d="M212.835 51.1216C209.946 50.9755 207.761 50.1898 206.278 48.7646C204.796 47.3029 204.055 45.293 204.055 42.735C204.055 40.8713 204.549 39.2816 205.537 37.9661C206.525 36.614 207.837 35.5542 209.471 34.7868C211.105 34.0194 212.911 33.5444 214.887 33.3617C216.902 33.1789 218.935 33.3068 220.987 33.7454V32.0461C220.987 30.8767 220.493 30.0362 219.505 29.5246C218.517 29.013 217.301 28.7755 215.856 28.812C214.45 28.8486 213.025 29.1227 211.58 29.6343C210.931 29.8536 210.339 30.1196 209.803 30.4324C208.818 31.0072 207.502 31.0282 206.715 30.2036L204.34 27.7157C205.784 26.3636 207.495 25.3039 209.471 24.5365C211.447 23.7691 213.481 23.3306 215.571 23.2209C217.7 23.1113 219.695 23.3488 221.558 23.9335C223.458 24.5182 225.016 25.4683 226.233 26.7839C227.183 27.8071 227.715 29.1592 227.829 30.8402C227.943 32.5212 228 34.3666 228 36.3765V50.8476H221.044V48.3261C219.866 49.3858 218.555 50.135 217.111 50.5735C215.666 50.9755 214.241 51.1582 212.835 51.1216ZM220.816 43.1187V38.4046C216.864 38.1123 214.108 38.3498 212.55 39.1172C211.029 39.8846 210.269 41.0723 210.269 42.6802C210.269 43.7034 210.63 44.4525 211.352 44.9276C212.113 45.3661 213.044 45.5853 214.146 45.5853C215.286 45.5488 216.445 45.3295 217.624 44.9276C218.84 44.489 219.904 43.8861 220.816 43.1187Z" fill="#161616"></path><path d="M167.159 20.7542H160.887V14.8069H167.159V20.7542Z" fill="#161616"></path></svg>