<svg xmlns="http://www.w3.org/2000/svg" width="138" height="43" viewBox="0 0 138 43" fill="none"><path d="M35.86 9.87c1.35.95-.87 2.56-1.46 3L12.1 28.49.73 20.41v-1.45l.34-1.33c.23-.45.54-.86.95-1.22l.1-.04 9.98-7.18 10.3-7.4c.65-.45 1.51-.45 2.15 0l11.3 8.08Z" fill="#6CC7FE"></path><path d="m12.1 25.53.98-.65.36 15.9-.77.51-.57.17c-.32 0-.64-.1-.96-.27l-.04-.05-8.9-6.36a3.56 3.56 0 0 1-1.5-2.93V19.2c0-.54.14-1.08.37-1.58l11.03 7.9Z" fill="#029FFD"></path><path d="M45.94 33.42c-.23.46-.55.9-.96 1.22l-.18.14-8.85 6.31-.23.14c-.5.27-1.14.27-1.64 0-.1-.04-.18-.09-.23-.14L23.5 33.7l-.58-.45 10.8-7.57c.64-.45 1.5-.45 2.15 0l10.24 6.69-.17 1.06Z" fill="#0065C1"></path><path d="M46.3 19.21V31.9c0 .54-.14 1.05-.37 1.55l-9.98-7.14a1.87 1.87 0 0 0-2.14 0l-10.3 7.4-1.06.76-9.35 6.68c-.31.23-.68.32-1 .32V25.53l11.4-8.17 10.35-7.4a1.8 1.8 0 0 1 2-.09c.05.05.1.05.15.1l1.96 1.39 6.84 4.92c.13.09.22.18.31.27l.14.13a3.53 3.53 0 0 1 1.05 2.53Z" fill="#2DAFFD"></path><path fill-rule="evenodd" clip-rule="evenodd" d="M123.66 19.82a.56.56 0 0 1-.45-.2.65.65 0 0 1-.18-.44V2.14c0-.19.06-.33.18-.46a.63.63 0 0 1 .45-.17h3.24c.2 0 .34.06.45.17.12.11.18.27.18.46v5.68a4.97 4.97 0 0 1 1.69-1.25 5.39 5.39 0 0 1 2.32-.48c.99 0 1.87.22 2.64.67a4.54 4.54 0 0 1 1.81 1.94c.44.84.66 1.9.66 3.15v7.35c0 .17-.06.32-.17.44a.58.58 0 0 1-.45.2h-3.28a.61.61 0 0 1-.45-.2.6.6 0 0 1-.2-.44V12c0-.8-.19-1.42-.57-1.85-.39-.43-.93-.66-1.67-.66-.7 0-1.29.23-1.7.66a2.55 2.55 0 0 0-.65 1.84v7.2c0 .18-.06.33-.17.45a.58.58 0 0 1-.45.2h-3.23v-.02Zm-66.53-.2c.11.13.26.2.45.2v.03h3.15c.18 0 .34-.06.47-.2a.6.6 0 0 0 .19-.44v-7.03c0-.7.2-1.24.58-1.62.37-.38.91-.57 1.6-.57h2.48a.6.6 0 0 0 .46-.2.65.65 0 0 0 .18-.44V6.73c0-.2-.06-.35-.18-.47a.67.67 0 0 0-.46-.17h-1.13c-.8 0-1.5.14-2.15.43a4.5 4.5 0 0 0-1.6 1.22V6.73a.6.6 0 0 0-.2-.45.62.62 0 0 0-.46-.19h-2.93a.59.59 0 0 0-.45.2.65.65 0 0 0-.17.44v12.45c0 .18.06.32.17.45Zm13.63-.47c.73.45 1.6.67 2.57.67.96 0 1.8-.15 2.5-.46a4.2 4.2 0 0 0 1.72-1.39v1.23c0 .17.06.32.2.44.12.13.27.2.44.2h2.94c.18 0 .34-.07.45-.2a.65.65 0 0 0 .18-.44V6.73a.6.6 0 0 0-.63-.64h-3.18a.63.63 0 0 0-.45.17.66.66 0 0 0-.17.47v7.19c0 .8-.21 1.41-.63 1.84-.42.43-.98.65-1.67.65-1.48 0-2.22-.82-2.22-2.5V6.74c0-.2-.06-.35-.2-.47a.67.67 0 0 0-.46-.17h-3.18a.63.63 0 0 0-.45.17.66.66 0 0 0-.17.47v7.33c0 1.24.22 2.29.64 3.15.42.86 1.01 1.5 1.77 1.94Zm14.63.67a.56.56 0 0 1-.45-.2.65.65 0 0 1-.18-.44V6.73c0-.2.07-.34.18-.47a.63.63 0 0 1 .45-.17h2.76c.2 0 .34.06.45.17.12.12.18.28.18.47v1.13a4.5 4.5 0 0 1 3.58-1.75c1.96-.05 3.31.68 4.04 2.2a4.68 4.68 0 0 1 4.05-2.18c.88 0 1.66.2 2.37.6.7.4 1.27 1 1.69 1.83.42.82.64 1.89.64 3.2v7.47c0 .17-.06.32-.18.44a.59.59 0 0 1-.45.2h-2.94a.62.62 0 0 1-.46-.2.6.6 0 0 1-.2-.44v-7.35a3.2 3.2 0 0 0-.25-1.42c-.18-.35-.4-.6-.7-.74a2.04 2.04 0 0 0-.99-.23c-.3 0-.6.08-.9.23-.29.16-.53.4-.7.74-.18.35-.28.82-.28 1.42v7.3c0 .18-.06.32-.17.45a.59.59 0 0 1-.45.19h-2.94a.56.56 0 0 1-.45-.2.65.65 0 0 1-.18-.44v-7.3c0-.59-.1-1.07-.27-1.42a1.7 1.7 0 0 0-.71-.74 1.9 1.9 0 0 0-.95-.23c-.32 0-.63.08-.93.23-.29.16-.53.4-.7.74-.18.35-.28.82-.28 1.39v7.33a.6.6 0 0 1-.2.45.61.61 0 0 1-.44.19h-3.04Zm24.15-.53a6.4 6.4 0 0 0 4.2.3c.5-.15.94-.38 1.3-.65.38-.27.66-.57.89-.89v1.18c0 .17.06.32.18.44.1.13.25.2.45.2h2.94c.17 0 .32-.07.45-.2a.6.6 0 0 0 .19-.44v-7.99c0-.74-.11-1.43-.34-2.05a4.06 4.06 0 0 0-1.07-1.62 5.14 5.14 0 0 0-1.92-1.07 9.12 9.12 0 0 0-2.8-.38c-1.05 0-1.97.13-2.7.38-.76.26-1.36.58-1.84.97s-.83.78-1.06 1.18c-.22.4-.34.75-.34 1.05a.5.5 0 0 0 .13.4c.1.11.24.16.44.16h2.84c.27 0 .48-.11.64-.34.16-.31.4-.57.7-.76.28-.2.67-.29 1.15-.29.67 0 1.14.16 1.4.48.25.32.38.8.38 1.4v.35l-3.18.48a9.07 9.07 0 0 0-3.92 1.43 3.34 3.34 0 0 0-1.48 2.86c0 .75.23 1.42.65 2 .43.61 1 1.07 1.72 1.42Zm5-2.69a2.85 2.85 0 0 1-2.24.16 1.51 1.51 0 0 1-.67-.47c-.18-.2-.26-.45-.26-.74 0-.38.17-.7.54-.98.36-.27.94-.48 1.74-.62l2.17-.37v.35c0 .67-.11 1.24-.34 1.69-.24.44-.55.78-.95.98Zm-55.3 20.95c.53.18 1.15.27 1.9.27a6.9 6.9 0 0 0 2.32-.35c.64-.27 1.11-.63 1.43-1.1a2.74 2.74 0 0 0 .16-2.86c-.22-.4-.58-.73-1.07-1.01-.5-.3-1.2-.53-2.06-.7-.8-.18-1.41-.35-1.82-.51-.41-.16-.69-.35-.83-.54a1 1 0 0 1-.23-.67c0-.43.16-.78.5-1.05.32-.27.82-.42 1.48-.42.47 0 .83.07 1.12.18.3.11.52.25.7.43.17.16.33.33.46.5.05.07.1.12.16.15.07.05.13.06.23.06h.83c.13 0 .23-.04.32-.12.08-.1.13-.2.12-.34a1.5 1.5 0 0 0-.26-.63c-.16-.26-.39-.51-.7-.77a3.92 3.92 0 0 0-1.21-.65 5.3 5.3 0 0 0-1.77-.25c-.84 0-1.54.14-2.1.43a3.2 3.2 0 0 0-1.27 1.11 2.6 2.6 0 0 0-.13 2.69c.2.38.53.7 1 .97.46.27 1.09.5 1.87.68.8.18 1.43.34 1.88.5.45.15.77.35.95.54.18.2.27.46.27.8 0 .5-.22.88-.66 1.14-.44.25-1 .38-1.67.38a3.4 3.4 0 0 1-1.15-.18 2.5 2.5 0 0 1-.79-.46l-.02-.02a9.24 9.24 0 0 1-.75-.7.4.4 0 0 0-.16-.04h-.89c-.1 0-.2.03-.32.11a.34.34 0 0 0-.14.33c.02.16.11.37.27.64.16.27.4.53.74.8.32.25.76.47 1.29.66Zm8.74-12.15a.45.45 0 0 1-.33-.13.45.45 0 0 1-.12-.33v-1.07c0-.12.04-.23.12-.33a.4.4 0 0 1 .33-.14h1.25c.13 0 .24.04.34.14.1.1.14.2.14.33v1.07c0 .13-.05.24-.14.33-.1.08-.21.13-.34.13h-1.25Zm.16 12.43a.45.45 0 0 1-.32-.13.45.45 0 0 1-.13-.34v-9.8c0-.12.04-.23.13-.33.08-.08.19-.13.32-.13h.94c.13 0 .25.05.33.13.08.08.12.2.12.33v9.8c0 .13-.04.24-.12.34a.45.45 0 0 1-.33.13h-.94Zm5.4-.4c.54.27 1.13.4 1.8.4.64 0 1.17-.07 1.63-.21a3.54 3.54 0 0 0 1.78-1.27v1.05c0 .14.04.25.12.33.08.08.2.13.34.13h.91c.13 0 .24-.05.32-.13.08-.1.13-.2.13-.33v-6.62c0-.46-.06-.9-.2-1.34a3.08 3.08 0 0 0-1.94-2c-.56-.21-1.23-.3-2.02-.3-.72 0-1.32.09-1.82.28-.5.2-.9.43-1.22.7-.32.29-.56.57-.7.86-.15.29-.23.54-.23.73 0 .11.03.22.11.3.07.08.18.13.33.13h.88c.2 0 .34-.11.42-.3.14-.37.4-.67.77-.9a2.6 2.6 0 0 1 1.43-.36c.82 0 1.4.2 1.76.54.37.35.55.85.55 1.48v.58l-2.95.4a6.23 6.23 0 0 0-2.9 1.07 2.57 2.57 0 0 0-1.1 2.18c0 .58.16 1.09.5 1.53.31.45.75.8 1.3 1.07ZM77.22 36c-.43.23-.93.35-1.48.35-.35 0-.7-.07-1.04-.2a2 2 0 0 1-.84-.54c-.2-.23-.32-.55-.32-.92 0-.48.23-.86.7-1.18a5.18 5.18 0 0 1 2.13-.66l2.3-.34v.56c0 .75-.13 1.35-.4 1.84-.25.5-.6.85-1.05 1.09Zm6.65 5.4a.45.45 0 0 1-.32-.12.45.45 0 0 1-.13-.34V27.58c0-.13.05-.24.13-.33.08-.08.2-.13.32-.13h.92c.12 0 .24.05.32.13.08.08.13.19.13.33v1.07c.32-.43.73-.8 1.27-1.1a4.12 4.12 0 0 1 1.97-.43c.74 0 1.37.13 1.9.38.51.26.94.59 1.28 1.04.34.42.6.93.76 1.47a7 7 0 0 1 .3 1.79c.02.2.02.43.02.66 0 .24 0 .47-.02.67-.03.62-.13 1.21-.3 1.78a4.61 4.61 0 0 1-.76 1.48 3.71 3.71 0 0 1-3.18 1.42 3.92 3.92 0 0 1-3.2-1.5v4.6a.5.5 0 0 1-.1.34.45.45 0 0 1-.33.12h-.98v.03Zm4.2-5.18c.68 0 1.21-.14 1.6-.45.39-.3.67-.68.84-1.17.17-.48.27-1 .3-1.56.02-.38.02-.77 0-1.15a5.49 5.49 0 0 0-.3-1.56 2.6 2.6 0 0 0-.84-1.17c-.39-.3-.93-.45-1.6-.45-.65 0-1.18.16-1.58.46-.4.3-.7.69-.88 1.16-.2.48-.31.96-.33 1.43l-.01.75.01.78c.02.46.13.92.33 1.37.19.44.51.83.91 1.11.4.3.92.45 1.54.45Zm7.27 1.48c.08.08.2.12.32.12v-.01h.95c.13 0 .24-.05.32-.13.08-.1.13-.2.13-.33v-4.3l4.61 4.43c.14.12.26.22.35.27.1.04.25.06.44.06h1.03a.4.4 0 0 0 .3-.11c.08-.08.11-.2.11-.3 0-.1-.08-.23-.24-.35L98.4 31.9l4.82-4.01c.1-.06.16-.13.2-.2a.41.41 0 0 0 .04-.17.4.4 0 0 0-.1-.3.43.43 0 0 0-.31-.11H102c-.2 0-.35.02-.43.06-.08.04-.17.12-.3.21l-.07.06-4.15 3.46v-7.07a.45.45 0 0 0-.12-.33.45.45 0 0 0-.33-.13h-.93a.45.45 0 0 0-.32.13c-.08.1-.13.2-.13.33v13.52c0 .15.05.26.13.34Zm13.72.13a4.3 4.3 0 0 1-3.26-1.26 5.22 5.22 0 0 1-1.33-3.44c-.02-.17-.02-.4-.02-.67s0-.49.02-.66c.04-.94.27-1.77.66-2.47.38-.7.9-1.26 1.57-1.64a4.61 4.61 0 0 1 2.35-.57c1 0 1.84.2 2.52.64.67.43 1.2 1.01 1.56 1.8.35.77.53 1.68.53 2.73v.33c0 .15-.05.26-.13.34a.44.44 0 0 1-.33.1h-6.85v.19c.03.53.14 1.04.35 1.5.2.48.51.85.92 1.15.4.29.86.43 1.4.43a2.88 2.88 0 0 0 2.37-1.15c.11-.15.2-.25.27-.28a.8.8 0 0 1 .32-.05h.97c.11 0 .22.03.3.11.08.08.13.18.12.3-.02.2-.12.45-.32.72-.2.29-.49.57-.84.84-.37.27-.82.51-1.35.69-.53.24-1.13.32-1.8.32Zm-2.71-6.11h5.43v-.07c0-.59-.12-1.13-.33-1.59a2.58 2.58 0 0 0-2.4-1.51c-.57 0-1.07.14-1.47.41-.4.27-.7.64-.91 1.1-.21.46-.32.99-.32 1.6v.06Zm9.81 5.98c.08.08.2.13.32.13h.97c.13 0 .24-.05.33-.13.1-.1.15-.2.15-.34v-6.22c0-.71.2-1.28.6-1.7a2.3 2.3 0 0 1 1.7-.62h1.2c.13 0 .24-.03.32-.11.08-.08.13-.2.13-.32v-.8a.45.45 0 0 0-.13-.34.45.45 0 0 0-.32-.13h-.77c-.66 0-1.22.11-1.69.33-.46.24-.83.58-1.09 1.02v-.87a.46.46 0 0 0-.14-.34.47.47 0 0 0-.34-.14h-.92a.4.4 0 0 0-.32.14c-.08.1-.13.2-.13.34v9.76c0 .15.05.26.13.34Zm5.7 3.7a.45.45 0 0 1-.32-.12.45.45 0 0 1-.13-.34v-.67a.5.5 0 0 1 .13-.33c.08-.08.2-.13.32-.13h.28c.48 0 .82-.1 1.04-.27.23-.17.37-.41.45-.71.08-.3.11-.62.11-.99V27.56c0-.12.05-.23.13-.33.08-.08.2-.13.32-.13h.97c.13 0 .24.05.32.13.08.08.13.2.13.33v10.3c0 .7-.12 1.32-.32 1.84-.23.53-.58.94-1.06 1.24-.49.3-1.16.45-2 .45h-.37v.01Zm2.19-16a.45.45 0 0 1-.32-.13.45.45 0 0 1-.13-.33v-1.07a.5.5 0 0 1 .13-.33.4.4 0 0 1 .32-.14h1.27c.13 0 .24.04.34.14.1.1.14.2.14.33v1.07c0 .13-.05.24-.14.33-.1.08-.21.13-.34.13h-1.27Zm5.6 12.03c.55.27 1.15.4 1.8.4.63 0 1.18-.07 1.64-.21a3.55 3.55 0 0 0 1.78-1.27v1.05c0 .14.04.25.12.33.08.08.2.13.34.13h.91c.13 0 .24-.05.32-.13.08-.1.13-.2.13-.33v-6.62c0-.46-.06-.9-.2-1.34a3.08 3.08 0 0 0-1.94-2c-.56-.21-1.23-.3-2.02-.3-.72 0-1.32.09-1.81.28-.5.2-.9.43-1.22.7-.33.29-.57.57-.71.86-.15.29-.23.54-.23.73 0 .11.04.22.12.3.06.08.17.13.32.13h.88c.2 0 .34-.11.42-.3.14-.37.4-.67.77-.9a2.6 2.6 0 0 1 1.43-.36c.82 0 1.4.2 1.77.54.37.35.54.85.54 1.48v.58l-2.95.4a6.23 6.23 0 0 0-2.9 1.07 2.57 2.57 0 0 0-1.1 2.18c0 .58.16 1.09.5 1.53.32.45.75.8 1.3 1.07Zm3.7-1.43c-.43.23-.93.35-1.48.35-.37 0-.7-.07-1.04-.2a2 2 0 0 1-.84-.54c-.2-.23-.32-.55-.32-.92 0-.48.23-.86.7-1.18a5.18 5.18 0 0 1 2.13-.66l2.3-.34v.56c0 .75-.13 1.35-.39 1.84-.26.5-.6.85-1.06 1.09Z" fill="#455468"></path></svg>